# xmcd
# Copyright (C) 1995-1998 Ti Kan
#
# Track frame offsets:
#       150
#       4958
#       9965
#       14854
#       19872
#       21721
#       26906
#       30903
#       34597
#       40178
#       48603
#       54037
#
# Disc length: 789 seconds
#
# Revision: 0
# Processed by: cddbd v1.5.2PL0 Copyright (c) Steve Scherf et al.
# Submitted via: CD-Import v1.0
#
DISCID=8f03130c
DTITLE=Camenisch - Blum  - Daniel Glaus: Edelsteine
DYEAR=1900
DGENRE=
TTITLE0=Daniel Glaus: Edelsteine 1
TTITLE1=Daniel Glaus: Edelsteine 2
TTITLE2=Daniel Glaus: Edelsteine 3
TTITLE3=Daniel Glaus: Edelsteine 4
TTITLE4=Daniel Glaus: Edelsteine 5
TTITLE5=Daniel Glaus: Edelsteine 6
TTITLE6=Daniel Glaus: Edelsteine 7
TTITLE7=Daniel Glaus: Edelsteine 8
TTITLE8=Daniel Glaus: Edelsteine 9
TTITLE9=Daniel Glaus: Edelsteine 10
TTITLE10=Daniel Glaus: Edelsteine 11
TTITLE11=Daniel Glaus: Edelsteine 12
EXTD=
EXTT0=
EXTT1=
EXTT2=
EXTT3=
EXTT4=
EXTT5=
EXTT6=
EXTT7=
EXTT8=
EXTT9=
EXTT10=
EXTT11=
PLAYORDER=
